<svg width="217" height="55" viewBox="0 0 217 55" fill="none" xmlns="http://www.w3.org/2000/svg">
<path d="M27.272 15.12C27.368 14.832 27.416 14.448 27.416 13.968C27.416 13.2 27.2 12.576 26.768 12.096C26.384 11.616 25.76 11.088 24.896 10.512C24.176 9.984 23.648 9.528 23.312 9.144C23.024 8.76 22.952 8.304 23.096 7.776C23.24 7.104 23.6 6.648 24.176 6.408C24.752 6.168 25.664 6.048 26.912 6.048H47.36C48.368 6.048 49.136 6.216 49.664 6.552C50.24 6.888 50.528 7.32 50.528 7.848C50.528 8.088 50.456 8.4 50.312 8.784C50.168 9.12 49.952 9.432 49.664 9.72C49.424 9.96 49.184 10.152 48.944 10.296C48.752 10.392 48.608 10.488 48.512 10.584C47.744 11.016 47.12 11.496 46.64 12.024C46.16 12.552 45.752 13.368 45.416 14.472L38.36 39.384C36.92 44.472 34.472 48.264 31.016 50.76C27.56 53.208 23.072 54.432 17.552 54.432C13.856 54.432 10.712 53.904 8.12 52.848C5.576 51.744 3.656 50.28 2.36 48.456C1.064 46.632 0.416 44.64 0.416 42.48C0.416 41.424 0.56 40.392 0.848 39.384C1.472 37.224 2.528 35.592 4.016 34.488C5.552 33.384 7.256 32.832 9.128 32.832C11.288 32.832 12.944 33.48 14.096 34.776C15.248 36.072 15.824 37.728 15.824 39.744C15.824 40.752 15.68 41.76 15.392 42.768C14.816 44.784 13.736 46.272 12.152 47.232C12.92 47.712 13.808 47.952 14.816 47.952C15.824 47.952 16.712 47.448 17.48 46.44C18.248 45.432 18.896 44.016 19.424 42.192L27.272 15.12ZM87.2368 44.064C87.1408 44.448 87.0928 44.736 87.0928 44.928C87.0928 45.264 87.1648 45.528 87.3088 45.72C87.5008 45.912 87.7408 46.008 88.0288 46.008C88.6048 46.008 89.0848 45.768 89.4688 45.288C89.9008 44.76 90.1888 44.496 90.3328 44.496C90.5728 44.496 90.7648 44.664 90.9088 45C91.1008 45.288 91.1968 45.648 91.1968 46.08C91.2448 47.424 90.7648 48.768 89.7568 50.112C88.7488 51.408 87.3328 52.488 85.5088 53.352C83.6848 54.216 81.6448 54.648 79.3888 54.648C76.5568 54.648 74.3008 54.072 72.6208 52.92C70.9408 51.768 69.8608 50.256 69.3808 48.384C67.6528 50.304 65.7328 51.768 63.6208 52.776C61.5568 53.736 59.4448 54.216 57.2848 54.216C53.9248 54.216 51.0928 53.4 48.7888 51.768C46.5328 50.088 45.4048 47.76 45.4048 44.784C45.4048 43.44 45.6448 42.048 46.1248 40.608L50.7328 25.56C50.8768 25.128 50.9488 24.768 50.9488 24.48C50.9488 23.952 50.8288 23.544 50.5888 23.256C50.3488 22.92 49.9888 22.584 49.5088 22.248C49.0288 21.864 48.6928 21.528 48.5008 21.24C48.3088 20.952 48.2848 20.568 48.4288 20.088C48.7168 18.984 50.2288 18.024 52.9648 17.208C55.7008 16.344 58.5568 15.912 61.5328 15.912C64.3168 15.912 66.3568 16.44 67.6528 17.496C68.9488 18.552 69.5968 19.992 69.5968 21.816C69.5968 22.92 69.4288 23.976 69.0928 24.984L64.5568 39.96C64.3648 40.488 64.2688 40.992 64.2688 41.472C64.2688 42.144 64.4608 42.648 64.8448 42.984C65.2288 43.32 65.7328 43.488 66.3568 43.488C67.2688 43.488 68.0128 43.224 68.5888 42.696C69.1648 42.168 69.7408 41.28 70.3168 40.032L74.7088 25.56C74.8528 25.128 74.9248 24.768 74.9248 24.48C74.9248 23.952 74.8048 23.544 74.5648 23.256C74.3248 22.92 73.9888 22.584 73.5568 22.248C73.0768 21.864 72.7408 21.528 72.5488 21.24C72.3568 20.952 72.3328 20.568 72.4768 20.088C72.7168 18.984 74.2048 18.024 76.9408 17.208C79.6768 16.344 82.5328 15.912 85.5088 15.912C88.2928 15.912 90.3328 16.44 91.6288 17.496C92.9728 18.552 93.6448 19.968 93.6448 21.744C93.6448 22.656 93.4528 23.736 93.0688 24.984L87.2368 44.064ZM138.396 44.064C138.3 44.256 138.252 44.544 138.252 44.928C138.252 45.264 138.324 45.528 138.468 45.72C138.66 45.912 138.9 46.008 139.188 46.008C139.764 46.008 140.244 45.768 140.628 45.288C141.06 44.76 141.348 44.496 141.492 44.496C141.732 44.496 141.924 44.664 142.068 45C142.212 45.288 142.284 45.648 142.284 46.08C142.332 47.472 141.876 48.84 140.916 50.184C139.956 51.48 138.54 52.56 136.668 53.424C134.844 54.24 132.636 54.648 130.044 54.648C126.876 54.648 124.356 53.928 122.484 52.488C120.612 51 119.652 49.032 119.604 46.584C119.604 44.808 120.036 42.816 120.9 40.608L124.86 30.24C125.1 29.616 125.22 29.112 125.22 28.728C125.22 28.104 125.004 27.624 124.572 27.288C124.188 26.904 123.708 26.712 123.132 26.712C122.076 26.712 121.068 27.216 120.108 28.224C119.148 29.184 118.452 30.384 118.02 31.824L113.556 46.512C113.364 47.04 113.268 47.544 113.268 48.024C113.268 48.6 113.388 49.08 113.628 49.464C113.868 49.8 114.204 50.16 114.636 50.544C114.972 50.832 115.212 51.096 115.356 51.336C115.5 51.576 115.524 51.864 115.428 52.2C115.236 52.824 114.78 53.28 114.06 53.568C113.34 53.856 112.212 54 110.676 54H94.2601C93.0121 54 92.1241 53.808 91.5961 53.424C91.0201 52.992 90.8041 52.44 90.9481 51.768C91.1401 51.192 91.6441 50.688 92.4601 50.256C93.1801 49.872 93.7801 49.416 94.2601 48.888C94.7401 48.36 95.1481 47.52 95.4841 46.368L101.892 25.56C101.988 25.32 102.036 24.984 102.036 24.552C102.036 24.024 101.916 23.616 101.676 23.328C101.484 23.04 101.148 22.68 100.668 22.248C100.188 21.864 99.8521 21.528 99.6601 21.24C99.4681 20.952 99.4441 20.568 99.5881 20.088C99.8761 18.984 101.388 18.024 104.124 17.208C106.86 16.344 109.716 15.912 112.692 15.912C115.092 15.912 116.988 16.584 118.38 17.928C119.772 19.224 120.396 21.048 120.252 23.4C122.22 20.568 124.308 18.624 126.516 17.568C128.724 16.464 131.124 15.912 133.716 15.912C136.644 15.912 138.996 16.8 140.772 18.576C142.596 20.352 143.508 22.656 143.508 25.488C143.508 26.976 143.268 28.44 142.788 29.88L138.396 44.064ZM164.303 15.912C167.087 15.912 169.127 16.44 170.423 17.496C171.719 18.552 172.367 19.992 172.367 21.816C172.367 22.92 172.199 23.976 171.863 24.984L165.239 46.512C165.095 47.088 165.023 47.592 165.023 48.024C165.023 48.648 165.143 49.152 165.383 49.536C165.623 49.872 165.959 50.208 166.391 50.544C166.727 50.88 166.967 51.168 167.111 51.408C167.255 51.6 167.279 51.864 167.183 52.2C166.943 52.824 166.463 53.28 165.743 53.568C165.023 53.856 163.919 54 162.431 54H146.015C144.767 54 143.855 53.808 143.279 53.424C142.703 52.992 142.511 52.44 142.703 51.768C142.895 51.192 143.399 50.688 144.215 50.256C144.935 49.872 145.535 49.416 146.015 48.888C146.495 48.36 146.903 47.52 147.239 46.368L153.503 25.56C153.647 25.128 153.719 24.768 153.719 24.48C153.719 23.952 153.599 23.544 153.359 23.256C153.119 22.92 152.759 22.584 152.279 22.248C151.799 21.864 151.463 21.528 151.271 21.24C151.079 20.952 151.055 20.568 151.199 20.088C151.487 18.984 152.999 18.024 155.735 17.208C158.471 16.344 161.327 15.912 164.303 15.912ZM169.127 -4.29153e-06C170.999 -4.29153e-06 172.559 0.623996 173.807 1.872C175.055 3.072 175.679 4.56 175.679 6.336C175.679 7.584 175.343 8.808 174.671 10.008C174.047 11.208 173.135 12.192 171.935 12.96C170.783 13.68 169.487 14.04 168.047 14.04C166.223 14.04 164.687 13.44 163.439 12.24C162.239 10.992 161.615 9.456 161.567 7.632C161.567 6.432 161.879 5.256 162.503 4.104C163.127 2.904 164.015 1.92 165.167 1.152C166.319 0.383996 167.639 -4.29153e-06 169.127 -4.29153e-06ZM209.678 15.912C211.694 15.912 213.35 16.608 214.646 18C215.942 19.344 216.59 21.024 216.59 23.04C216.59 23.952 216.446 24.888 216.158 25.848C215.63 27.48 214.838 28.704 213.782 29.52C212.774 30.336 211.622 30.744 210.326 30.744C208.79 30.744 207.302 30.24 205.862 29.232L202.262 32.616C203.462 35.88 204.446 38.304 205.214 39.888C205.982 41.472 206.606 42.504 207.086 42.984C207.566 43.416 208.118 43.632 208.742 43.632C209.078 43.632 209.51 43.512 210.038 43.272C210.566 42.984 210.974 42.84 211.262 42.84C211.55 42.84 211.79 42.984 211.982 43.272C212.174 43.512 212.27 43.848 212.27 44.28C212.27 44.52 212.222 44.88 212.126 45.36C211.742 46.992 210.926 48.48 209.678 49.824C208.43 51.168 206.942 52.248 205.214 53.064C203.486 53.832 201.734 54.216 199.958 54.216C198.182 54.216 196.646 54 195.35 53.568C194.054 53.088 192.734 52.056 191.39 50.472C190.046 48.888 188.678 46.512 187.286 43.344L185.486 47.376C184.334 49.92 183.158 51.72 181.958 52.776C180.806 53.784 179.438 54.288 177.854 54.288C175.742 54.288 174.014 53.616 172.67 52.272C171.326 50.928 170.654 49.224 170.654 47.16C170.654 46.2 170.798 45.264 171.086 44.352C171.614 42.72 172.382 41.496 173.39 40.68C174.446 39.864 175.622 39.456 176.918 39.456C178.454 39.456 179.942 39.96 181.382 40.968L184.982 37.584C183.83 34.32 182.894 31.896 182.174 30.312C181.454 28.68 180.83 27.648 180.302 27.216C179.822 26.736 179.27 26.496 178.646 26.496C178.31 26.496 177.878 26.64 177.35 26.928C176.87 27.168 176.486 27.288 176.198 27.288C175.478 27.288 175.118 26.784 175.118 25.776C175.118 25.632 175.166 25.32 175.262 24.84C175.886 22.344 177.398 20.232 179.798 18.504C182.198 16.776 184.766 15.912 187.502 15.912C189.23 15.912 190.742 16.176 192.038 16.704C193.382 17.232 194.702 18.288 195.998 19.872C197.342 21.456 198.686 23.76 200.03 26.784L202.046 22.248C203.102 19.944 204.206 18.312 205.358 17.352C206.51 16.392 207.95 15.912 209.678 15.912Z" fill="#D81F26"/>
</svg>
